HIERARCHY
ROOT Hips
{
	OFFSET	0.00	0.00	0.00
	CHANNELS 6 Xposition Yposition Zposition Zrotation Xrotation Yrotation
	JOINT LeftUpLeg
	{
		OFFSET	 0.126116	-0.014019	-0.065224
		CHANNELS 3 Zrotation Xrotation Yrotation
		JOINT LeftLeg
		{
			OFFSET	 0.000000	 0.000000	 0.569914
			CHANNELS 3 Zrotation Xrotation Yrotation
			JOINT LeftFoot
			{
				OFFSET	 0.000000	 0.000000	 0.544423
				CHANNELS 3 Zrotation Xrotation Yrotation
				JOINT LeftToeBase
				{
					OFFSET	 0.000000	 0.000000	 0.207117
					CHANNELS 3 Zrotation Xrotation Yrotation
					End Site
					{
						OFFSET	 0.000000	 0.000000	 0.207117
					}
				}
			}
		}
	}
	JOINT RightUpLeg
	{
		OFFSET	-0.124023	-0.008373	-0.065224
		CHANNELS 3 Zrotation Xrotation Yrotation
		JOINT RightLeg
		{
			OFFSET	 0.000000	 0.000000	 0.570047
			CHANNELS 3 Zrotation Xrotation Yrotation
			JOINT RightFoot
			{
				OFFSET	 0.000000	 0.000000	 0.544354
				CHANNELS 3 Zrotation Xrotation Yrotation
				JOINT RightToeBase
				{
					OFFSET	 0.000000	 0.000000	 0.207540
					CHANNELS 3 Zrotation Xrotation Yrotation
					End Site
					{
						OFFSET	 0.000000	 0.000000	 0.207540
					}
				}
			}
		}
	}
	JOINT Spine
	{
		OFFSET	 0.000184	-0.007763	 0.117403
		CHANNELS 3 Zrotation Xrotation Yrotation
		JOINT Spine1
		{
			OFFSET	 0.000000	 0.000000	 0.137269
			CHANNELS 3 Zrotation Xrotation Yrotation
			JOINT Spine2
			{
				OFFSET	 0.000000	 0.000000	 0.156879
				CHANNELS 3 Zrotation Xrotation Yrotation
				JOINT LeftShoulder
				{
					OFFSET	 0.080501	-0.002496	 0.160144
					CHANNELS 3 Zrotation Xrotation Yrotation
					JOINT LeftArm
					{
						OFFSET	 0.000000	 0.000000	 0.164363
						CHANNELS 3 Zrotation Xrotation Yrotation
						JOINT LeftForeArm
						{
							OFFSET	 0.000000	 0.000000	 0.364576
							CHANNELS 3 Zrotation Xrotation Yrotation
							JOINT LeftHand
							{
								OFFSET	 0.000000	 0.000000	 0.360812
								CHANNELS 3 Zrotation Xrotation Yrotation
								JOINT LeftHandIndex1
								{
									OFFSET	 0.000000	 0.000000	 0.086006
									CHANNELS 3 Zrotation Xrotation Yrotation
									JOINT LeftHandIndex2
									{
										OFFSET	 0.000000	 0.000000	 0.047236
										CHANNELS 3 Zrotation Xrotation Yrotation
										JOINT LeftHandIndex3
										{
											OFFSET	-0.004284	-0.000551	 0.038166
											CHANNELS 3 Zrotation Xrotation Yrotation
											End Site
											{
												OFFSET	-0.004284	-0.000551	 0.038166
											}
										}
									}
								}
							}
						}
					}
				}
				JOINT Neck
				{
					OFFSET	 0.000000	 0.000000	 0.176489
					CHANNELS 3 Zrotation Xrotation Yrotation
					JOINT Head
					{
						OFFSET	 0.000000	-0.001747	 0.077940
						CHANNELS 3 Zrotation Xrotation Yrotation
						End Site
						{
							OFFSET	 0.000000	-0.001747	 0.077940
						}
					}
				}
				JOINT RightShoulder
				{
					OFFSET	-0.080363	 0.000306	 0.159706
					CHANNELS 3 Zrotation Xrotation Yrotation
					JOINT RightArm
					{
						OFFSET	 0.000000	 0.000000	 0.164196
						CHANNELS 3 Zrotation Xrotation Yrotation
						JOINT RightForeArm
						{
							OFFSET	 0.000000	 0.000000	 0.365611
							CHANNELS 3 Zrotation Xrotation Yrotation
							JOINT RightHand
							{
								OFFSET	 0.000000	 0.000000	 0.360648
								CHANNELS 3 Zrotation Xrotation Yrotation
								JOINT RightHandIndex1
								{
									OFFSET	 0.000000	 0.000000	 0.069977
									CHANNELS 3 Zrotation Xrotation Yrotation
									JOINT RightHandIndex2
									{
										OFFSET	 0.000000	 0.000000	 0.052305
										CHANNELS 3 Zrotation Xrotation Yrotation
										JOINT RightHandIndex3
										{
											OFFSET	 0.009002	-0.000782	 0.042196
											CHANNELS 3 Zrotation Xrotation Yrotation
											End Site
											{
												OFFSET	 0.009002	-0.000782	 0.042196
											}
										}
									}
								}
							}
						}
					}
				}
			}
		}
	}
}
MOTION
Frames:    5
Frame Time: 0.03333334
-2.323349	-12.246840	 0.405120	-29.782910	 1.006043	 0.532067	 2.140504	-33.709820	 172.353100	-6.043837	-68.153310	-6.563504	 177.104000	 86.858880	-179.965500	-2.327725	 37.118550	-0.200912	-0.211699	-35.287400	-177.456900	 1.744945	-72.726880	 4.330428	-177.879100	 85.464730	 179.508700	 2.404531	 21.620370	-0.140748	 0.317818	 14.293230	 1.210964	 1.050907	 7.619752	-1.987933	 1.488632	 4.693671	 0.037529	-136.474700	 89.533120	-131.935500	 49.202470	 61.191800	-77.385280	-13.180970	-2.274122	-19.940190	 0.709718	-4.183230	-5.371502	-3.812334	 37.924440	-2.927599	-2.450526	 36.184240	 0.754587	-1.378229	 35.397820	-2.634230	 1.583021	 2.502343	-3.134754	 0.967492	 7.855641	 2.853212	 93.983390	 85.951070	 171.440200	-54.119090	 70.495520	 73.367520	-6.456353	-12.363550	 21.080620	-27.002890	-5.152237	 9.565518	 6.437017	 35.671460	-0.771858	 2.830251	 35.756010	-7.813440	-2.350882	 35.473990	 5.254307
-2.318988	-12.245280	 0.421524	-30.964040	 3.155402	 0.274992	 2.527153	-34.759060	 172.676600	-4.849052	-65.785920	-4.959592	 175.907800	 87.814030	-178.353800	-2.345676	 35.029810	-0.149598	 0.503988	-36.214650	-177.522200	 1.290208	-69.478560	 4.289147	-176.849300	 86.176540	 178.730300	 2.406217	 20.315800	-0.166827	 0.230625	 14.299840	 1.101991	 1.061014	 7.314620	-1.927653	 1.699919	 4.401543	 0.047203	-125.320200	 89.417510	-143.106700	 46.678510	 61.109700	-75.743350	-13.150480	-2.373368	-18.855710	 1.053824	-6.033475	-5.381805	-3.812334	 37.924440	-2.927599	-2.450526	 36.184240	 0.754587	-1.378229	 35.397820	-2.634230	 1.815795	 2.223203	-3.042362	 1.178426	 7.594532	 3.605293	 94.262890	 86.021820	 170.994600	-54.015660	 70.999370	 72.973790	-6.510049	-12.110440	 20.333820	-26.991720	-6.966094	 9.589756	 6.437017	 35.671460	-0.771858	 2.830251	 35.756010	-7.813440	-2.350882	 35.473990	 5.254307
-2.314332	-12.244350	 0.436613	-32.233900	 5.050231	-0.169071	 3.100376	-35.474850	 173.237500	-4.282338	-63.597060	-3.866761	 172.596100	 88.761090	-174.712900	-2.358637	 33.283260	-0.108248	 1.324439	-37.368000	-177.201600	 0.066317	-67.396140	 3.630477	-174.476400	 87.346420	 176.238000	 2.406807	 19.674730	-0.179550	 0.241759	 14.436410	 1.188243	 1.149016	 7.133180	-1.805820	 1.911248	 4.147918	 0.057311	-120.324300	 89.336770	-148.127800	 44.370240	 60.883130	-74.596820	-13.496050	-2.333738	-17.898080	 0.923513	-8.434050	-5.407858	-3.812334	 37.924440	-2.927599	-2.450526	 36.184240	 0.754587	-1.378229	 35.397820	-2.634230	 2.057652	 2.005823	-2.908467	 1.374408	 7.331553	 4.342065	 94.428190	 86.065730	 170.740800	-53.932000	 71.636850	 72.364350	-6.513155	-11.770550	 19.485360	-26.835770	-9.330344	 9.636344	 6.437017	 35.671460	-0.771858	 2.830251	 35.756010	-7.813440	-2.350882	 35.473990	 5.254307
-2.310794	-12.244550	 0.448794	-33.394010	 6.424412	-0.579107	 3.883969	-35.641060	 173.821000	-4.149481	-61.603660	-3.074160	 157.977500	 89.564340	-159.820500	-2.366272	 32.124980	-0.081517	 1.868959	-38.228440	-176.709700	-1.499883	-65.669160	 2.471178	-170.933200	 88.321360	 172.273200	 2.407120	 19.240190	-0.188140	 0.291999	 14.892710	 1.387908	 1.258150	 7.181088	-1.674010	 2.080022	 4.002668	 0.065011	-118.395000	 89.301420	-150.083900	 42.448600	 60.827090	-74.325150	-13.562480	-2.469421	-16.880810	 1.360922	-11.411490	-5.448480	-3.812334	 37.924440	-2.927599	-2.450526	 36.184240	 0.754587	-1.378229	 35.397820	-2.634230	 2.248941	 1.859080	-2.817867	 1.522264	 7.187017	 4.711662	 94.546550	 86.107010	 170.579700	-53.516870	 72.358280	 71.437020	-6.776606	-11.405360	 18.352160	-26.916310	-12.262170	 9.708461	 6.437017	 35.671460	-0.771858	 2.830251	 35.756010	-7.813440	-2.350882	 35.473990	 5.254307
-2.309385	-12.245030	 0.458404	-33.743930	 7.528444	-0.675472	 4.369200	-35.936420	 174.045200	-3.736033	-59.979560	-2.279003	 53.692840	 89.801190	-55.183130	-2.369234	 31.642810	-0.070551	 1.692073	-38.364800	-176.589000	-2.319950	-63.932800	 1.521585	-166.214100	 88.903530	 167.167500	 2.407032	 19.378220	-0.185415	 0.096844	 15.118250	 1.299422	 1.120227	 7.337968	-1.678970	 2.107582	 4.010053	 0.065739	-118.305500	 89.328270	-150.316700	 41.152470	 61.075210	-74.862620	-13.798580	-2.603493	-15.787330	 1.865871	-14.776390	-5.511495	-3.812334	 37.924440	-2.927599	-2.450526	 36.184240	 0.754587	-1.378229	 35.397820	-2.634230	 2.218870	 1.955445	-2.696718	 1.638799	 7.090484	 4.547037	 94.681510	 86.147450	 170.387000	-52.415890	 73.284830	 69.671160	-7.099227	-10.936940	 16.958400	-27.113580	-15.577870	 9.818224	 6.437017	 35.671460	-0.771858	 2.830251	 35.756010	-7.813440	-2.350882	 35.473990	 5.254307
